<?xml version="1.0" encoding="UTF-8" standalone="no"?>
<!DOCTYPE svg PUBLIC "-//W3C//DTD SVG 1.1//EN"
 "http://www.w3.org/Graphics/SVG/1.1/DTD/svg11.dtd">
<!-- Generated by graphviz version 2.30.1 (20150306.0020)
 -->
<!-- Title: snakemake_dag Pages: 1 -->
<svg width="204pt" height="260pt"
 viewBox="0.00 0.00 204.00 260.00" xmlns="http://www.w3.org/2000/svg" xmlns:xlink="http://www.w3.org/1999/xlink">
<g id="graph0" class="graph" transform="scale(1 1) rotate(0) translate(4 256)">
<title>snakemake_dag</title>
<polygon fill="white" stroke="white" points="-4,5 -4,-256 201,-256 201,5 -4,5"/>
<!-- 0 -->
<g id="node1" class="node"><title>0</title>
<path fill="none" stroke="#d6d856" stroke-width="2" d="M117,-36C117,-36 87,-36 87,-36 81,-36 75,-30 75,-24 75,-24 75,-12 75,-12 75,-6 81,-0 87,-0 87,-0 117,-0 117,-0 123,-0 129,-6 129,-12 129,-12 129,-24 129,-24 129,-30 123,-36 117,-36"/>
<text text-anchor="middle" x="102" y="-15.5" font-family="sans" font-size="10.00">filtering</text>
</g>
<!-- 1 -->
<g id="node2" class="node"><title>1</title>
<path fill="none" stroke="#d85656" stroke-width="2" d="M134.25,-108C134.25,-108 69.75,-108 69.75,-108 63.75,-108 57.75,-102 57.75,-96 57.75,-96 57.75,-84 57.75,-84 57.75,-78 63.75,-72 69.75,-72 69.75,-72 134.25,-72 134.25,-72 140.25,-72 146.25,-78 146.25,-84 146.25,-84 146.25,-96 146.25,-96 146.25,-102 140.25,-108 134.25,-108"/>
<text text-anchor="middle" x="102" y="-87.5" font-family="sans" font-size="10.00">variant_calling</text>
</g>
<!-- 1&#45;&gt;0 -->
<g id="edge1" class="edge"><title>1&#45;&gt;0</title>
<path fill="none" stroke="grey" stroke-width="2" d="M102,-71.6966C102,-63.9827 102,-54.7125 102,-46.1124"/>
<polygon fill="grey" stroke="grey" points="105.5,-46.1043 102,-36.1043 98.5001,-46.1044 105.5,-46.1043"/>
</g>
<!-- 2 -->
<g id="node3" class="node"><title>2</title>
<path fill="none" stroke="#97d856" stroke-width="2" d="M77.25,-180C77.25,-180 26.75,-180 26.75,-180 20.75,-180 14.75,-174 14.75,-168 14.75,-168 14.75,-156 14.75,-156 14.75,-150 20.75,-144 26.75,-144 26.75,-144 77.25,-144 77.25,-144 83.25,-144 89.25,-150 89.25,-156 89.25,-156 89.25,-168 89.25,-168 89.25,-174 83.25,-180 77.25,-180"/>
<text text-anchor="middle" x="52" y="-159.5" font-family="sans" font-size="10.00">demultiplex</text>
</g>
<!-- 2&#45;&gt;1 -->
<g id="edge2" class="edge"><title>2&#45;&gt;1</title>
<path fill="none" stroke="grey" stroke-width="2" d="M64.3596,-143.697C70.2328,-135.474 77.3691,-125.483 83.8424,-116.421"/>
<polygon fill="grey" stroke="grey" points="86.8183,-118.276 89.7826,-108.104 81.1221,-114.207 86.8183,-118.276"/>
</g>
<!-- 3 -->
<g id="node4" class="node"><title>3</title>
<path fill="none" stroke="#59d856" stroke-width="2" d="M92,-252C92,-252 12,-252 12,-252 6,-252 0,-246 0,-240 0,-240 0,-228 0,-228 0,-222 6,-216 12,-216 12,-216 92,-216 92,-216 98,-216 104,-222 104,-228 104,-228 104,-240 104,-240 104,-246 98,-252 92,-252"/>
<text text-anchor="middle" x="52" y="-231.5" font-family="sans" font-size="10.00">adapter_trimming</text>
</g>
<!-- 3&#45;&gt;2 -->
<g id="edge4" class="edge"><title>3&#45;&gt;2</title>
<path fill="none" stroke="grey" stroke-width="2" d="M52,-215.697C52,-207.983 52,-198.712 52,-190.112"/>
<polygon fill="grey" stroke="grey" points="55.5001,-190.104 52,-180.104 48.5001,-190.104 55.5001,-190.104"/>
</g>
<!-- 4 -->
<g id="node5" class="node"><title>4</title>
<path fill="none" stroke="#56d8d8" stroke-width="2" d="M184.25,-180C184.25,-180 119.75,-180 119.75,-180 113.75,-180 107.75,-174 107.75,-168 107.75,-168 107.75,-156 107.75,-156 107.75,-150 113.75,-144 119.75,-144 119.75,-144 184.25,-144 184.25,-144 190.25,-144 196.25,-150 196.25,-156 196.25,-156 196.25,-168 196.25,-168 196.25,-174 190.25,-180 184.25,-180"/>
<text text-anchor="middle" x="152" y="-159.5" font-family="sans" font-size="10.00">make_popmap</text>
</g>
<!-- 4&#45;&gt;1 -->
<g id="edge3" class="edge"><title>4&#45;&gt;1</title>
<path fill="none" stroke="grey" stroke-width="2" d="M139.64,-143.697C133.767,-135.474 126.631,-125.483 120.158,-116.421"/>
<polygon fill="grey" stroke="grey" points="122.878,-114.207 114.217,-108.104 117.182,-118.276 122.878,-114.207"/>
</g>
</g>
</svg>
