<?xml version="1.0" encoding="UTF-8" standalone="no"?>
<!DOCTYPE svg PUBLIC "-//W3C//DTD SVG 1.1//EN"
 "http://www.w3.org/Graphics/SVG/1.1/DTD/svg11.dtd">
<!-- Generated by graphviz version 2.30.1 (20150306.0020)
 -->
<!-- Title: snakemake_dag Pages: 1 -->
<svg width="432pt" height="404pt"
 viewBox="0.00 0.00 432.00 404.00" xmlns="http://www.w3.org/2000/svg" xmlns:xlink="http://www.w3.org/1999/xlink">
<g id="graph0" class="graph" transform="scale(1 1) rotate(0) translate(4 400)">
<title>snakemake_dag</title>
<polygon fill="white" stroke="white" points="-4,5 -4,-400 429,-400 429,5 -4,5"/>
<!-- 0 -->
<g id="node1" class="node"><title>0</title>
<path fill="none" stroke="#56d89a" stroke-width="2" d="M236,-36C236,-36 206,-36 206,-36 200,-36 194,-30 194,-24 194,-24 194,-12 194,-12 194,-6 200,-0 206,-0 206,-0 236,-0 236,-0 242,-0 248,-6 248,-12 248,-12 248,-24 248,-24 248,-30 242,-36 236,-36"/>
<text text-anchor="middle" x="221" y="-15.5" font-family="sans" font-size="10.00">filtering</text>
</g>
<!-- 1 -->
<g id="node2" class="node"><title>1</title>
<path fill="none" stroke="#d6d856" stroke-width="2" d="M253.25,-108C253.25,-108 188.75,-108 188.75,-108 182.75,-108 176.75,-102 176.75,-96 176.75,-96 176.75,-84 176.75,-84 176.75,-78 182.75,-72 188.75,-72 188.75,-72 253.25,-72 253.25,-72 259.25,-72 265.25,-78 265.25,-84 265.25,-84 265.25,-96 265.25,-96 265.25,-102 259.25,-108 253.25,-108"/>
<text text-anchor="middle" x="221" y="-87.5" font-family="sans" font-size="10.00">variant_calling</text>
</g>
<!-- 1&#45;&gt;0 -->
<g id="edge1" class="edge"><title>1&#45;&gt;0</title>
<path fill="none" stroke="grey" stroke-width="2" d="M221,-71.6966C221,-63.9827 221,-54.7125 221,-46.1124"/>
<polygon fill="grey" stroke="grey" points="224.5,-46.1043 221,-36.1043 217.5,-46.1044 224.5,-46.1043"/>
</g>
<!-- 2 -->
<g id="node3" class="node"><title>2</title>
<path fill="none" stroke="#d89556" stroke-width="2" d="M88,-180C88,-180 26,-180 26,-180 20,-180 14,-174 14,-168 14,-168 14,-156 14,-156 14,-150 20,-144 26,-144 26,-144 88,-144 88,-144 94,-144 100,-150 100,-156 100,-156 100,-168 100,-168 100,-174 94,-180 88,-180"/>
<text text-anchor="middle" x="57" y="-159.5" font-family="sans" font-size="10.00">samtools_sort</text>
</g>
<!-- 2&#45;&gt;1 -->
<g id="edge2" class="edge"><title>2&#45;&gt;1</title>
<path fill="none" stroke="grey" stroke-width="2" d="M97.1189,-143.876C119.638,-134.264 147.918,-122.193 171.771,-112.013"/>
<polygon fill="grey" stroke="grey" points="173.188,-115.213 181.011,-108.068 170.44,-108.775 173.188,-115.213"/>
</g>
<!-- 3 -->
<g id="node4" class="node"><title>3</title>
<path fill="none" stroke="#59d856" stroke-width="2" d="M88.25,-252C88.25,-252 11.75,-252 11.75,-252 5.75,-252 -0.25,-246 -0.25,-240 -0.25,-240 -0.25,-228 -0.25,-228 -0.25,-222 5.75,-216 11.75,-216 11.75,-216 88.25,-216 88.25,-216 94.25,-216 100.25,-222 100.25,-228 100.25,-228 100.25,-240 100.25,-240 100.25,-246 94.25,-252 88.25,-252"/>
<text text-anchor="middle" x="50" y="-237" font-family="sans" font-size="10.00">bwa_map</text>
<text text-anchor="middle" x="50" y="-226" font-family="sans" font-size="10.00">sample: sampleA</text>
</g>
<!-- 3&#45;&gt;2 -->
<g id="edge6" class="edge"><title>3&#45;&gt;2</title>
<path fill="none" stroke="grey" stroke-width="2" d="M51.7303,-215.697C52.5017,-207.983 53.4288,-198.712 54.2888,-190.112"/>
<polygon fill="grey" stroke="grey" points="57.7771,-190.403 55.2896,-180.104 50.8118,-189.706 57.7771,-190.403"/>
</g>
<!-- 4 -->
<g id="node5" class="node"><title>4</title>
<path fill="none" stroke="#56d8d8" stroke-width="2" d="M194.25,-324C194.25,-324 143.75,-324 143.75,-324 137.75,-324 131.75,-318 131.75,-312 131.75,-312 131.75,-300 131.75,-300 131.75,-294 137.75,-288 143.75,-288 143.75,-288 194.25,-288 194.25,-288 200.25,-288 206.25,-294 206.25,-300 206.25,-300 206.25,-312 206.25,-312 206.25,-318 200.25,-324 194.25,-324"/>
<text text-anchor="middle" x="169" y="-303.5" font-family="sans" font-size="10.00">demultiplex</text>
</g>
<!-- 4&#45;&gt;3 -->
<g id="edge7" class="edge"><title>4&#45;&gt;3</title>
<path fill="none" stroke="grey" stroke-width="2" d="M139.889,-287.876C124.33,-278.724 104.981,-267.342 88.2245,-257.485"/>
<polygon fill="grey" stroke="grey" points="89.6165,-254.243 79.2226,-252.19 86.0673,-260.277 89.6165,-254.243"/>
</g>
<!-- 7 -->
<g id="node8" class="node"><title>7</title>
<path fill="none" stroke="#59d856" stroke-width="2" d="M207.25,-252C207.25,-252 130.75,-252 130.75,-252 124.75,-252 118.75,-246 118.75,-240 118.75,-240 118.75,-228 118.75,-228 118.75,-222 124.75,-216 130.75,-216 130.75,-216 207.25,-216 207.25,-216 213.25,-216 219.25,-222 219.25,-228 219.25,-228 219.25,-240 219.25,-240 219.25,-246 213.25,-252 207.25,-252"/>
<text text-anchor="middle" x="169" y="-237" font-family="sans" font-size="10.00">bwa_map</text>
<text text-anchor="middle" x="169" y="-226" font-family="sans" font-size="10.00">sample: sampleB</text>
</g>
<!-- 4&#45;&gt;7 -->
<g id="edge10" class="edge"><title>4&#45;&gt;7</title>
<path fill="none" stroke="grey" stroke-width="2" d="M169,-287.697C169,-279.983 169,-270.712 169,-262.112"/>
<polygon fill="grey" stroke="grey" points="172.5,-262.104 169,-252.104 165.5,-262.104 172.5,-262.104"/>
</g>
<!-- 9 -->
<g id="node10" class="node"><title>9</title>
<path fill="none" stroke="#59d856" stroke-width="2" d="M326.25,-252C326.25,-252 249.75,-252 249.75,-252 243.75,-252 237.75,-246 237.75,-240 237.75,-240 237.75,-228 237.75,-228 237.75,-222 243.75,-216 249.75,-216 249.75,-216 326.25,-216 326.25,-216 332.25,-216 338.25,-222 338.25,-228 338.25,-228 338.25,-240 338.25,-240 338.25,-246 332.25,-252 326.25,-252"/>
<text text-anchor="middle" x="288" y="-237" font-family="sans" font-size="10.00">bwa_map</text>
<text text-anchor="middle" x="288" y="-226" font-family="sans" font-size="10.00">sample: sampleC</text>
</g>
<!-- 4&#45;&gt;9 -->
<g id="edge12" class="edge"><title>4&#45;&gt;9</title>
<path fill="none" stroke="grey" stroke-width="2" d="M198.111,-287.876C213.67,-278.724 233.019,-267.342 249.776,-257.485"/>
<polygon fill="grey" stroke="grey" points="251.933,-260.277 258.777,-252.19 248.383,-254.243 251.933,-260.277"/>
</g>
<!-- 5 -->
<g id="node6" class="node"><title>5</title>
<path fill="none" stroke="#97d856" stroke-width="2" d="M209,-396C209,-396 129,-396 129,-396 123,-396 117,-390 117,-384 117,-384 117,-372 117,-372 117,-366 123,-360 129,-360 129,-360 209,-360 209,-360 215,-360 221,-366 221,-372 221,-372 221,-384 221,-384 221,-390 215,-396 209,-396"/>
<text text-anchor="middle" x="169" y="-375.5" font-family="sans" font-size="10.00">adapter_trimming</text>
</g>
<!-- 5&#45;&gt;4 -->
<g id="edge8" class="edge"><title>5&#45;&gt;4</title>
<path fill="none" stroke="grey" stroke-width="2" d="M169,-359.697C169,-351.983 169,-342.712 169,-334.112"/>
<polygon fill="grey" stroke="grey" points="172.5,-334.104 169,-324.104 165.5,-334.104 172.5,-334.104"/>
</g>
<!-- 6 -->
<g id="node7" class="node"><title>6</title>
<path fill="none" stroke="#d89556" stroke-width="2" d="M200,-180C200,-180 138,-180 138,-180 132,-180 126,-174 126,-168 126,-168 126,-156 126,-156 126,-150 132,-144 138,-144 138,-144 200,-144 200,-144 206,-144 212,-150 212,-156 212,-156 212,-168 212,-168 212,-174 206,-180 200,-180"/>
<text text-anchor="middle" x="169" y="-159.5" font-family="sans" font-size="10.00">samtools_sort</text>
</g>
<!-- 6&#45;&gt;1 -->
<g id="edge3" class="edge"><title>6&#45;&gt;1</title>
<path fill="none" stroke="grey" stroke-width="2" d="M181.854,-143.697C188.025,-135.389 195.537,-125.277 202.324,-116.141"/>
<polygon fill="grey" stroke="grey" points="205.14,-118.219 208.294,-108.104 199.521,-114.045 205.14,-118.219"/>
</g>
<!-- 7&#45;&gt;6 -->
<g id="edge9" class="edge"><title>7&#45;&gt;6</title>
<path fill="none" stroke="grey" stroke-width="2" d="M169,-215.697C169,-207.983 169,-198.712 169,-190.112"/>
<polygon fill="grey" stroke="grey" points="172.5,-190.104 169,-180.104 165.5,-190.104 172.5,-190.104"/>
</g>
<!-- 8 -->
<g id="node9" class="node"><title>8</title>
<path fill="none" stroke="#d89556" stroke-width="2" d="M304,-180C304,-180 242,-180 242,-180 236,-180 230,-174 230,-168 230,-168 230,-156 230,-156 230,-150 236,-144 242,-144 242,-144 304,-144 304,-144 310,-144 316,-150 316,-156 316,-156 316,-168 316,-168 316,-174 310,-180 304,-180"/>
<text text-anchor="middle" x="273" y="-159.5" font-family="sans" font-size="10.00">samtools_sort</text>
</g>
<!-- 8&#45;&gt;1 -->
<g id="edge4" class="edge"><title>8&#45;&gt;1</title>
<path fill="none" stroke="grey" stroke-width="2" d="M260.146,-143.697C253.975,-135.389 246.463,-125.277 239.676,-116.141"/>
<polygon fill="grey" stroke="grey" points="242.479,-114.045 233.706,-108.104 236.86,-118.219 242.479,-114.045"/>
</g>
<!-- 9&#45;&gt;8 -->
<g id="edge11" class="edge"><title>9&#45;&gt;8</title>
<path fill="none" stroke="grey" stroke-width="2" d="M284.292,-215.697C282.639,-207.983 280.653,-198.712 278.81,-190.112"/>
<polygon fill="grey" stroke="grey" points="282.183,-189.149 276.665,-180.104 275.338,-190.616 282.183,-189.149"/>
</g>
<!-- 10 -->
<g id="node11" class="node"><title>10</title>
<path fill="none" stroke="#d85656" stroke-width="2" d="M411.25,-180C411.25,-180 346.75,-180 346.75,-180 340.75,-180 334.75,-174 334.75,-168 334.75,-168 334.75,-156 334.75,-156 334.75,-150 340.75,-144 346.75,-144 346.75,-144 411.25,-144 411.25,-144 417.25,-144 423.25,-150 423.25,-156 423.25,-156 423.25,-168 423.25,-168 423.25,-174 417.25,-180 411.25,-180"/>
<text text-anchor="middle" x="379" y="-159.5" font-family="sans" font-size="10.00">make_popmap</text>
</g>
<!-- 10&#45;&gt;1 -->
<g id="edge5" class="edge"><title>10&#45;&gt;1</title>
<path fill="none" stroke="grey" stroke-width="2" d="M340.349,-143.876C318.749,-134.307 291.649,-122.3 268.734,-112.148"/>
<polygon fill="grey" stroke="grey" points="270.086,-108.919 259.526,-108.068 267.251,-115.319 270.086,-108.919"/>
</g>
</g>
</svg>
